# xmcd CD database file
#
# Track frame offsets:
#	150
#	32276
#	55425
#	72887
#	95882
#	117693
#	140486
#	158708
#	182038
#	202319
#	227949
#	250119
#	271893
#	295538
#
# Disc length: 4278 seconds
#
# Revision: 0
# Processed by: cddbd v1.5.1PL0 Copyright (c) Steve Scherf et al.
# Submitted via: CDex 1.50
#
DISCID=d410b40e
DTITLE=Divers - SALSA
DYEAR=2005
DGENRE=Salsa
TTITLE0=N'diambaane
TTITLE1=Mecanico
TTITLE2=Lloraras
TTITLE3=Apadiante de mi
TTITLE4=Nunca voy a olvidarte
TTITLE5=No me ames
TTITLE6=Yay boy
TTITLE7=Asi es la mujer
TTITLE8=Salsa
TTITLE9=INDIA
TTITLE10=No la descuides
TTITLE11=Pensamiento y palabra
TTITLE12=Mi musica es tu musica
TTITLE13=Ne me quitte pas
EXTD=YEAR: 2005
EXTT0=
EXTT1=
EXTT2=
EXTT3=
EXTT4=
EXTT5=
EXTT6=
EXTT7=
EXTT8=
EXTT9=
EXTT10=
EXTT11=
EXTT12=
EXTT13=
PLAYORDER=
